<svg width="9" height="16" viewBox="0 0 9 16" fill="none" xmlns="http://www.w3.org/2000/svg">
<path d="M7.60607 5.75149L2.73789 0.883306C2.53917 0.685768 2.27036 0.57489 1.99016 0.57489C1.70997 0.57489 1.44115 0.685768 1.24244 0.883306C1.14303 0.981904 1.06412 1.09921 1.01028 1.22845C0.956434 1.3577 0.928711 1.49632 0.928711 1.63634C0.928711 1.77635 0.956434 1.91498 1.01028 2.04422C1.06412 2.17347 1.14303 2.29077 1.24244 2.38937L6.12122 7.24694C6.22063 7.34554 6.29954 7.46285 6.35338 7.59209C6.40723 7.72133 6.43495 7.85996 6.43495 7.99997C6.43495 8.13999 6.40723 8.27861 6.35338 8.40786C6.29954 8.5371 6.22063 8.65441 6.12122 8.753L1.24244 13.6106C1.04272 13.8089 0.929962 14.0784 0.928968 14.3599C0.927973 14.6413 1.03882 14.9116 1.23713 15.1113C1.43544 15.3111 1.70497 15.4238 1.98641 15.4248C2.26786 15.4258 2.53818 15.315 2.73789 15.1166L7.60607 10.2485C8.20192 9.65187 8.53661 8.84316 8.53661 7.99997C8.53661 7.15679 8.20192 6.34808 7.60607 5.75149Z" fill="#353535"/>
</svg>
