<svg width="28" height="28" viewBox="0 0 28 28" fill="none" xmlns="http://www.w3.org/2000/svg">
<g clip-path="url(#clip0_1_50)">
<path d="M27.6092 26.3515L27.0002 27.0515C26.3573 27.6955 25.5103 28 24.6668 28C20.3338 28 14 21.9998 14 17.3332C14 16.4897 14.3045 15.6427 14.9485 14.9998L15.6485 14.3908C16.1688 13.8705 17.0135 13.8705 17.5338 14.3908L18.9432 15.9098C19.4635 16.4302 19.4635 17.2748 18.9432 17.7952L17.7473 19.0038C18.7985 21.6218 20.5812 23.3322 22.9973 24.2538L24.206 23.058C24.7263 22.5377 25.571 22.5377 26.0913 23.058L27.6103 24.4673C28.1307 24.9877 28.1307 25.8323 27.6103 26.3527L27.6092 26.3515ZM16.3333 26.8333C16.3333 27.4773 15.8118 28 15.1667 28H4.66667C2.093 28 0 25.907 0 23.3333V5.83333C0 2.61683 2.61683 0 5.83333 0H17.5C20.7165 0 23.3333 2.61683 23.3333 5.83333V15.1667C23.3333 15.8107 22.8118 16.3333 22.1667 16.3333C21.5215 16.3333 21 15.8107 21 15.1667V5.83333C21 3.90367 19.4297 2.33333 17.5 2.33333H7V18.6667H10.5C11.1452 18.6667 11.6667 19.1893 11.6667 19.8333C11.6667 20.4773 11.1452 21 10.5 21H4.66667C3.37983 21 2.33333 22.0465 2.33333 23.3333C2.33333 24.6202 3.37983 25.6667 4.66667 25.6667H15.1667C15.8118 25.6667 16.3333 26.1893 16.3333 26.8333ZM2.33333 5.83333V19.3153C3.02283 18.914 3.81267 18.6667 4.66667 18.6667V2.548C3.31217 3.031 2.33333 4.31433 2.33333 5.83333Z" fill="#353535"/>
</g>
<defs>
<clipPath id="clip0_1_50">
<rect width="28" height="28" fill="white"/>
</clipPath>
</defs>
</svg>
