<svg width="28" height="28" viewBox="0 0 28 28" fill="none" xmlns="http://www.w3.org/2000/svg">
<g clip-path="url(#clip0_1_61)">
<path d="M25.7332 6.10165L17.1302 2.00315C15.2364 0.871994 12.8794 0.851923 10.9667 1.95065L2.26687 6.10165C2.23422 6.118 2.20037 6.1355 2.16887 6.15415C0.104303 7.33463 -0.612432 9.96527 0.568053 12.0298C0.968201 12.7297 1.5568 13.3032 2.26687 13.685L4.66672 14.8284V20.545C4.66814 23.1013 6.33146 25.3596 8.77222 26.1194C10.4708 26.6107 12.232 26.8513 14.0001 26.8334C15.7679 26.8531 17.5291 26.6146 19.2279 26.1252C21.6687 25.3655 23.332 23.1071 23.3334 20.5509V14.826L25.6668 13.7106V23.3333C25.6668 23.9776 26.1891 24.4999 26.8334 24.4999C27.4778 24.4999 28.0001 23.9776 28.0001 23.3333V9.3333C28.0078 7.96332 26.9261 6.69774 25.7332 6.10165ZM21 20.5509C21.0006 22.0799 20.0086 23.4323 18.55 23.891C17.0709 24.3136 15.5382 24.5188 14 24.5C12.4618 24.5188 10.9291 24.3136 9.45001 23.891C7.99144 23.4323 6.99941 22.0799 7.00001 20.5509V15.9402L10.8699 17.7836C11.8247 18.3506 12.9152 18.6485 14.0257 18.6457C15.0827 18.6532 16.1219 18.3734 17.0322 17.8361L21 15.9401V20.5509ZM24.7334 11.5792L15.9344 15.7791C14.7075 16.4935 13.1868 16.4733 11.9794 15.7266L3.37051 11.6316C2.41091 11.1142 2.05249 9.91681 2.56994 8.95727C2.74494 8.63275 3.00733 8.36374 3.32737 8.18065L12.0715 4.004C13.2988 3.2912 14.8186 3.31138 16.0265 4.0565L24.6295 8.155C25.2622 8.50631 25.658 9.16973 25.6667 9.89335C25.6678 10.5788 25.3149 11.2162 24.7334 11.5792Z" fill="#353535"/>
</g>
<defs>
<clipPath id="clip0_1_61">
<rect width="28" height="28" fill="white"/>
</clipPath>
</defs>
</svg>
