<svg width="28" height="28" viewBox="0 0 28 28" fill="none" xmlns="http://www.w3.org/2000/svg">
<g clip-path="url(#clip0_1_53)">
<path d="M25.6667 6.678V2.33333C25.6667 1.68933 25.1452 1.16667 24.5 1.16667C23.8548 1.16667 23.3333 1.68933 23.3333 2.33333V5.09367L17.2632 0.997501C15.281 -0.339499 12.719 -0.339499 10.7368 0.997501L2.57017 6.50883C0.961333 7.595 0 9.40217 0 11.3447V22.1667C0 25.3832 2.61683 28 5.83333 28H9.33333C9.9785 28 10.5 27.4773 10.5 26.8333V17.5C10.5 16.8572 11.0227 16.3333 11.6667 16.3333H16.3333C16.9773 16.3333 17.5 16.8572 17.5 17.5V26.8333C17.5 27.4773 18.0215 28 18.6667 28H22.1667C25.3832 28 28 25.3832 28 22.1667V11.3447C28 9.50017 27.132 7.777 25.6667 6.678ZM25.6667 22.1667C25.6667 24.0963 24.0963 25.6667 22.1667 25.6667H19.8333V17.5C19.8333 15.5703 18.263 14 16.3333 14H11.6667C9.737 14 8.16667 15.5703 8.16667 17.5V25.6667H5.83333C3.90367 25.6667 2.33333 24.0963 2.33333 22.1667V11.3447C2.33333 10.1792 2.90967 9.09417 3.87567 8.44317L12.0423 2.93183C13.2323 2.12917 14.7677 2.12917 15.9565 2.93183L24.1232 8.44317C25.0892 9.09417 25.6655 10.1792 25.6655 11.3447L25.6667 22.1667Z" fill="#353535"/>
</g>
<defs>
<clipPath id="clip0_1_53">
<rect width="28" height="28" fill="white"/>
</clipPath>
</defs>
</svg>
