<svg width="28" height="28" viewBox="0 0 28 28" fill="none" xmlns="http://www.w3.org/2000/svg">
<g clip-path="url(#clip0_1_77)">
<path d="M14 13.9999C15.3845 13.9999 16.7378 13.5894 17.889 12.8202C19.0401 12.0511 19.9373 10.9578 20.4672 9.67872C20.997 8.39964 21.1356 6.99217 20.8655 5.63431C20.5954 4.27644 19.9287 3.02916 18.9497 2.05019C17.9708 1.07122 16.7235 0.404538 15.3656 0.134441C14.0078 -0.135655 12.6003 0.00296815 11.3212 0.532782C10.0421 1.0626 8.94888 1.9598 8.17971 3.11095C7.41054 4.26209 7 5.61547 7 6.99994C7.00185 8.85589 7.73995 10.6353 9.0523 11.9476C10.3647 13.26 12.1441 13.9981 14 13.9999ZM14 2.33327C14.923 2.33327 15.8252 2.60697 16.5927 3.11975C17.3601 3.63253 17.9582 4.36136 18.3114 5.21408C18.6646 6.0668 18.7571 7.00512 18.577 7.91036C18.3969 8.81561 17.9525 9.64713 17.2998 10.2998C16.6472 10.9524 15.8157 11.3969 14.9104 11.5769C14.0052 11.757 13.0669 11.6646 12.2141 11.3114C11.3614 10.9582 10.6326 10.36 10.1198 9.5926C9.60703 8.82517 9.33333 7.92292 9.33333 6.99994C9.33333 5.76226 9.825 4.57528 10.7002 3.70011C11.5753 2.82494 12.7623 2.33327 14 2.33327Z" fill="#353535"/>
<path d="M14 16.3333C11.2162 16.3364 8.54725 17.4437 6.57879 19.4121C4.61033 21.3806 3.50309 24.0495 3.5 26.8333C3.5 27.1427 3.62292 27.4395 3.84171 27.6583C4.0605 27.8771 4.35725 28 4.66667 28C4.97609 28 5.27283 27.8771 5.49162 27.6583C5.71042 27.4395 5.83333 27.1427 5.83333 26.8333C5.83333 24.6674 6.69375 22.5902 8.22529 21.0586C9.75684 19.5271 11.8341 18.6667 14 18.6667C16.1659 18.6667 18.2432 19.5271 19.7747 21.0586C21.3063 22.5902 22.1667 24.6674 22.1667 26.8333C22.1667 27.1427 22.2896 27.4395 22.5084 27.6583C22.7272 27.8771 23.0239 28 23.3333 28C23.6428 28 23.9395 27.8771 24.1583 27.6583C24.3771 27.4395 24.5 27.1427 24.5 26.8333C24.4969 24.0495 23.3897 21.3806 21.4212 19.4121C19.4527 17.4437 16.7838 16.3364 14 16.3333Z" fill="#353535"/>
</g>
<defs>
<clipPath id="clip0_1_77">
<rect width="28" height="28" fill="white"/>
</clipPath>
</defs>
</svg>
