<svg width="28" height="28" viewBox="0 0 28 28" fill="none" xmlns="http://www.w3.org/2000/svg">
<path d="M24.8477 16.1992L24.3215 15.897C24.4405 15.2623 24.5 14.6277 24.5 14.0012C24.5 13.3747 24.4405 12.7388 24.3215 12.1053L24.8477 11.802C26.5207 10.8395 27.0993 8.69515 26.1368 7.02332C25.6713 6.21249 24.9177 5.63265 24.0147 5.38882C23.1128 5.14615 22.169 5.26865 21.3582 5.73299L20.8332 6.03515C19.852 5.19515 18.7215 4.54182 17.5 4.11132V3.50232C17.5 1.57265 15.9297 0.00231934 14 0.00231934C12.0703 0.00231934 10.5 1.57265 10.5 3.50232V4.11132C9.27849 4.54299 8.14799 5.19515 7.16683 6.03515L6.64182 5.73415C5.83216 5.26749 4.88832 5.14615 3.98532 5.38882C3.08232 5.63265 2.32866 6.21365 1.86316 7.02332C0.900658 8.69632 1.47932 10.8395 3.15232 11.8032L3.67849 12.1053C3.55949 12.74 3.49999 13.3747 3.49999 14.0012C3.49999 14.6277 3.55949 15.2635 3.67849 15.897L3.15232 16.2003C1.47932 17.1628 0.900658 19.3072 1.86316 20.979C2.32866 21.7898 3.08232 22.3697 3.98532 22.6135C4.88716 22.8585 5.83216 22.7348 6.64182 22.2693L7.16683 21.9672C8.14799 22.8072 9.27849 23.4605 10.5 23.891V24.5C10.5 26.4297 12.0703 28 14 28C15.9297 28 17.5 26.4297 17.5 24.5V23.891C18.7215 23.4593 19.852 22.8072 20.8332 21.9672L21.3582 22.2682C22.169 22.7348 23.1128 22.8585 24.0147 22.6135C24.9177 22.3697 25.6713 21.7887 26.1368 20.979C27.0993 19.306 26.5207 17.1628 24.8477 16.1992ZM21.8657 11.8312C22.0652 12.5592 22.1667 13.2895 22.1667 14C22.1667 14.7105 22.0652 15.4408 21.8657 16.1688C21.7245 16.681 21.9485 17.2247 22.4093 17.4895L23.6845 18.2222C24.2422 18.543 24.4358 19.2582 24.1138 19.8158C23.9587 20.0853 23.7078 20.279 23.4068 20.3607C23.107 20.4435 22.792 20.4015 22.5213 20.2452L21.2485 19.5137C20.7865 19.2488 20.2043 19.3293 19.8333 19.7097C18.7962 20.769 17.486 21.5262 16.0417 21.8983C15.526 22.0313 15.1667 22.4957 15.1667 23.0277V24.5C15.1667 25.1428 14.6428 25.6667 14 25.6667C13.3572 25.6667 12.8333 25.1428 12.8333 24.5V23.0277C12.8333 22.4957 12.4728 22.0313 11.9583 21.8983C10.5152 21.5262 9.20382 20.769 8.16666 19.7097C7.94149 19.4787 7.63816 19.3585 7.33249 19.3585C7.13416 19.3585 6.93349 19.4087 6.75149 19.5137L5.47866 20.2452C5.20799 20.4003 4.89182 20.4412 4.59316 20.3607C4.29216 20.279 4.04132 20.0865 3.88616 19.8158C3.56532 19.2582 3.75899 18.5442 4.31666 18.2233L5.59182 17.4907C6.05266 17.2258 6.27549 16.6822 6.13549 16.17C5.93599 15.442 5.83449 14.7117 5.83449 14.0012C5.83449 13.2907 5.93599 12.5603 6.13549 11.8323C6.27666 11.3202 6.05266 10.7765 5.59182 10.5117L4.31666 9.77899C3.75899 9.45815 3.56532 8.74299 3.88732 8.18532C4.04249 7.91582 4.29332 7.72215 4.59432 7.64049C4.89532 7.55999 5.21032 7.60082 5.47982 7.75599L6.75266 8.48749C7.21466 8.75349 7.79682 8.67182 8.16782 8.29149C9.20499 7.23215 10.5152 6.47499 11.9595 6.10282C12.4752 5.96982 12.8345 5.50549 12.8345 4.97349V3.50115C12.8345 2.85832 13.3583 2.33449 14.0012 2.33449C14.644 2.33449 15.1678 2.85832 15.1678 3.50115V4.97349C15.1678 5.50549 15.5283 5.96982 16.0428 6.10282C17.486 6.47499 18.7973 7.23215 19.8345 8.29149C20.2067 8.67182 20.7877 8.75349 21.2497 8.48749L22.5225 7.75599C22.792 7.59965 23.1058 7.55765 23.408 7.64049C23.709 7.72215 23.9598 7.91465 24.115 8.18532C24.4358 8.74299 24.2422 9.45699 23.6845 9.77782L22.4093 10.5105C21.9485 10.7753 21.7257 11.319 21.8657 11.8312ZM18.3692 17.1197C18.7985 17.6003 18.7577 18.3377 18.2782 18.767C18.0553 18.9665 17.7777 19.0645 17.5 19.0645C17.1792 19.0645 16.8607 18.9338 16.6297 18.676C15.96 17.9282 15.001 17.5 13.9988 17.5C12.9967 17.5 12.0377 17.9293 11.368 18.676C10.9387 19.1555 10.2013 19.1975 9.72066 18.767C9.23999 18.3377 9.20032 17.6003 9.62966 17.1197C10.7403 15.8783 12.3328 15.1667 13.9988 15.1667C15.6648 15.1667 17.2585 15.8783 18.3692 17.1197ZM11.0833 11.0833C11.0833 9.47215 12.3888 8.16665 14 8.16665C15.6112 8.16665 16.9167 9.47215 16.9167 11.0833C16.9167 12.6945 15.6112 14 14 14C12.3888 14 11.0833 12.6945 11.0833 11.0833Z" fill="#353535"/>
</svg>
