<svg width="28" height="28" viewBox="0 0 28 28" fill="none" xmlns="http://www.w3.org/2000/svg">
<g clip-path="url(#clip0_1_42)">
<path d="M24.5 26.8333C24.5 27.4785 23.9773 28 23.3333 28C22.6893 28 22.1667 27.4785 22.1667 26.8333C22.1667 24.2597 20.0737 22.1667 17.5 22.1667H10.5C7.92634 22.1667 5.83334 24.2597 5.83334 26.8333C5.83334 27.4785 5.31068 28 4.66668 28C4.02268 28 3.50001 27.4785 3.50001 26.8333C3.50001 22.9728 6.63951 19.8333 10.5 19.8333H17.5C21.3605 19.8333 24.5 22.9728 24.5 26.8333ZM25.6667 8.75V11.0833C25.6667 12.0482 24.8815 12.8333 23.9167 12.8333H23.3333C23.3333 15.407 21.2403 17.5 18.6667 17.5H9.33334C6.75968 17.5 4.66668 15.407 4.66668 12.8333H4.08334C3.11851 12.8333 2.33334 12.0482 2.33334 11.0833V8.75C2.33334 7.78517 3.11851 7 4.08334 7H4.66668C4.66668 4.42633 6.75968 2.33333 9.33334 2.33333H12.8333V1.16667C12.8333 0.5215 13.356 0 14 0C14.644 0 15.1667 0.5215 15.1667 1.16667V2.33333H18.6667C21.2403 2.33333 23.3333 4.42633 23.3333 7H23.9167C24.8815 7 25.6667 7.78517 25.6667 8.75ZM21 7C21 5.71317 19.9535 4.66667 18.6667 4.66667H9.33334C8.04651 4.66667 7.00001 5.71317 7.00001 7V12.8333C7.00001 14.1202 8.04651 15.1667 9.33334 15.1667H18.6667C19.9535 15.1667 21 14.1202 21 12.8333V7ZM11.0833 8.16667C10.1173 8.16667 9.33334 8.95067 9.33334 9.91667C9.33334 10.8827 10.1173 11.6667 11.0833 11.6667C12.0493 11.6667 12.8333 10.8827 12.8333 9.91667C12.8333 8.95067 12.0493 8.16667 11.0833 8.16667ZM16.9167 8.16667C15.9507 8.16667 15.1667 8.95067 15.1667 9.91667C15.1667 10.8827 15.9507 11.6667 16.9167 11.6667C17.8827 11.6667 18.6667 10.8827 18.6667 9.91667C18.6667 8.95067 17.8827 8.16667 16.9167 8.16667Z" fill="#353535"/>
</g>
<defs>
<clipPath id="clip0_1_42">
<rect width="28" height="28" fill="white"/>
</clipPath>
</defs>
</svg>
